<?xml version="1.0" encoding="UTF-8"?>
<svg version="1.1" xmlns="http://www.w3.org/2000/svg" width="1024" height="1024">
<path d="M0 0 C337.92 0 675.84 0 1024 0 C1024 337.92 1024 675.84 1024 1024 C686.08 1024 348.16 1024 0 1024 C0 686.08 0 348.16 0 0 Z " fill="#FCFBFA" transform="translate(0,0)"/>
<path d="M0 0 C99.99041411 0 99.99041411 0 122.25 20.8125 C134.75598847 33.98342855 139.41337684 50.20269806 139.203125 68.0390625 C138.50708341 81.61187355 133.56629495 97.39764873 123.796875 107.4296875 C103.70671746 124.98673822 83.69081629 127.51147357 58.0625 127.1875 C51.111875 127.125625 44.16125 127.06375 37 127 C37 148.78 37 170.56 37 193 C24.79 193 12.58 193 0 193 C0 129.31 0 65.62 0 0 Z " fill="#0B0D0D" transform="translate(86,394)"/>
<path d="M0 0 C14.5398865 11.28860632 24.38021741 26.86984387 27.546875 45.078125 C30.21760212 67.80232901 26.76090411 88.52761491 12.71875 106.921875 C3.87720856 117.29920367 -7.07754455 124.61481768 -20 128.93359375 C-20.91136719 129.25199219 -21.82273437 129.57039062 -22.76171875 129.8984375 C-30.30699045 132.0844508 -37.74762734 132.24133813 -45.5625 132.30859375 C-46.60301514 132.32253174 -47.64353027 132.33646973 -48.71557617 132.35083008 C-59.08265572 132.28797951 -68.74608708 130.15262895 -78 125.43359375 C-78.6707959 125.09465088 -79.3415918 124.75570801 -80.03271484 124.40649414 C-87.06976353 120.65702742 -92.50648473 115.64373028 -98 109.93359375 C-98.59039063 109.36253906 -99.18078125 108.79148437 -99.7890625 108.203125 C-113.77950925 93.65156407 -116.44648717 73.45916533 -116.21484375 54.24609375 C-115.683472 35.63158036 -107.78544559 19.0249404 -95.125 5.55859375 C-87.66098895 -1.4620107 -78.51116513 -6.39896546 -69 -10.06640625 C-67.75476563 -10.54787109 -67.75476563 -10.54787109 -66.484375 -11.0390625 C-44.50126944 -17.94895679 -18.64297139 -12.84131753 0 0 Z " fill="#0B0D0D" transform="translate(949,458.06640625)"/>
<path d="M0 0 C1.13928955 0.00902344 2.2785791 0.01804687 3.45239258 0.02734375 C22.43175459 0.41635921 39.06776117 7.13006681 52.53515625 20.5859375 C66.3151395 35.40094158 72.79081802 51.56956326 72.625 71.6875 C72.61364014 73.61130493 72.61364014 73.61130493 72.60205078 75.57397461 C72.27741359 94.22876517 66.63809083 109.39067958 54.1875 123.4375 C53.66800781 124.05109375 53.14851563 124.6646875 52.61328125 125.296875 C42.24713774 136.68135502 25.8105442 144.70159247 10.42358398 145.59863281 C7.15728466 145.64450556 3.89159448 145.67277732 0.625 145.6875 C-1.05045898 145.7184375 -1.05045898 145.7184375 -2.75976562 145.75 C-13.59422816 145.80024678 -23.31541076 143.77989803 -32.9375 138.75 C-33.61635254 138.39897217 -34.29520508 138.04794434 -34.99462891 137.6862793 C-50.02719604 129.68357433 -60.36156793 117.10116944 -66.8125 101.4375 C-67.225 100.48746094 -67.6375 99.53742188 -68.0625 98.55859375 C-74.49557328 80.71128281 -72.77344717 57.75549535 -65.15234375 40.6328125 C-57.04548939 23.55120105 -42.58629774 10.09366681 -24.8125 3.4375 C-16.51538436 0.78651659 -8.68344755 -0.08286597 0 0 Z " fill="#0B0D0D" transform="translate(304.8125,444.5625)"/>
<path d="M0 0 C1.13687256 0.00684814 2.27374512 0.01369629 3.44506836 0.02075195 C20.17751991 0.33802804 33.6570119 4.36280934 46.015625 15.9921875 C52.52939206 22.9269123 56.08048342 30.99665387 57.3125 40.4375 C57.01623142 41.77955582 56.68864975 43.11560732 56.3125 44.4375 C52.00788574 44.68585783 47.70711433 44.86662304 43.39746094 44.98681641 C41.93415702 45.03692955 40.47134969 45.10505153 39.00976562 45.19189453 C34.32240646 45.46330157 29.91637417 45.54285443 25.3125 44.4375 C22.88473807 42.06171178 21.71127721 40.01268875 20.39648438 36.89599609 C18.70217809 33.05327891 16.00769704 31.24176465 12.3125 29.4375 C3.30631904 26.23191017 -6.13422736 26.08289161 -14.84765625 30.171875 C-17.09517672 31.71794004 -18.30835052 33.07743569 -19.6875 35.4375 C-20.59099699 40.489554 -20.59571946 44.96555812 -17.875 49.375 C-11.14418851 53.73023097 -3.43276205 55.61272383 4.33203125 57.33203125 C5.04392105 57.48977524 5.75581085 57.64751923 6.48927307 57.81004333 C9.4350321 58.45629832 12.38203996 59.09490535 15.33422852 59.71118164 C30.32428543 62.86496846 44.771219 67.38729391 53.83203125 80.6640625 C59.71457908 90.53046837 60.61776093 100.35339288 58.125 111.5 C54.77286895 123.71804775 48.09642857 132.31697648 37.328125 138.86328125 C20.59048562 147.6006759 -2.55724755 148.38585116 -20.62890625 143.53515625 C-34.3152694 138.62344738 -47.04420729 130.89016773 -53.6875 117.4375 C-55.97552626 111.43143108 -57.80339028 105.89190663 -57.6875 99.4375 C-53.02441801 99.41281354 -48.36137392 99.39464651 -43.69824219 99.38256836 C-42.11132139 99.37753412 -40.52440523 99.37070631 -38.9375 99.36206055 C-36.65884251 99.34995518 -34.38024624 99.34426267 -32.1015625 99.33984375 C-31.03429428 99.33210182 -31.03429428 99.33210182 -29.94546509 99.32420349 C-24.91524341 99.32362829 -24.91524341 99.32362829 -22.6875 100.4375 C-22.254375 101.51 -21.82125 102.5825 -21.375 103.6875 C-18.90063956 109.67741216 -14.64837936 112.83289436 -8.97241211 115.59741211 C-5.02664324 117.04814303 -1.22204026 116.9773379 2.9375 116.875 C3.75734375 116.88208984 4.5771875 116.88917969 5.421875 116.89648438 C11.62182024 116.83169395 15.94150864 115.61624882 20.625 111.3125 C22.92499163 107.39399574 23.47738912 103.95546181 23.3125 99.4375 C22.37694139 96.27099394 21.23944743 95.03203598 18.48046875 93.26245117 C10.72738013 89.1390826 2.62342113 87.35851884 -5.875 85.5 C-22.93627181 81.76485389 -41.00031152 77.74086428 -51.46875 62.4453125 C-56.7042524 53.8201579 -57.19212912 44.17857848 -54.99609375 34.33984375 C-51.17502234 22.97255598 -44.13851861 13.6115814 -33.60546875 7.7109375 C-22.50853124 2.36650496 -12.3092103 -0.1142874 0 0 Z " fill="#0B0D0D" transform="translate(447.6875,444.5625)"/>
<path d="M0 0 C1.13832275 0.00499512 2.27664551 0.00999023 3.44946289 0.01513672 C12.90627787 0.20970758 20.64412119 1.67900301 29.3125 5.5 C30.29863281 5.9228125 31.28476562 6.345625 32.30078125 6.78125 C46.10816838 13.49941291 56.55329277 25.58999867 62.68359375 39.4921875 C63.3125 41.5 63.3125 41.5 63.3125 45.5 C59.25752619 46.64593773 55.20071771 47.78505957 51.14208984 48.91796875 C49.7623366 49.3041312 48.38309725 49.69213478 47.00439453 50.08203125 C45.01988607 50.6429017 43.03360941 51.19707357 41.046875 51.75 C39.85288086 52.08515625 38.65888672 52.4203125 37.42871094 52.765625 C34.3125 53.5 34.3125 53.5 30.3125 53.5 C29.9721875 52.78714844 29.631875 52.07429688 29.28125 51.33984375 C25.22307388 43.3206287 20.7963715 37.04851996 12.25 33.5625 C3.46464963 31.12635432 -6.72217049 30.97131143 -14.83984375 35.38671875 C-15.44957031 35.75410156 -16.05929687 36.12148438 -16.6875 36.5 C-17.71875 37.015625 -18.75 37.53125 -19.8125 38.0625 C-27.93681117 44.95050294 -31.97870851 55.20228284 -33.6875 65.5 C-34.53876737 79.52954102 -32.7662951 92.76223657 -24.0625 104.1875 C-18.97468337 109.85937722 -11.34121599 113.17209589 -3.8046875 113.703125 C5.81772502 113.84224422 13.94195667 113.17955489 21.3125 106.5 C21.9725 106.5 22.6325 106.5 23.3125 106.5 C23.58835937 105.93796875 23.86421875 105.3759375 24.1484375 104.796875 C25.35618028 102.41381206 26.63426809 100.0820992 27.9375 97.75 C28.38351562 96.95078125 28.82953125 96.1515625 29.2890625 95.328125 C29.79566406 94.42320312 29.79566406 94.42320312 30.3125 93.5 C37.73322457 94.11644295 44.67648148 95.69236047 51.875 97.5625 C52.97908203 97.84416016 54.08316406 98.12582031 55.22070312 98.41601562 C57.91939998 99.10529318 60.6165535 99.80005702 63.3125 100.5 C61.52320838 113.97933018 52.87326391 124.16844004 42.765625 132.6328125 C29.87535284 142.11578342 15.8611339 146.07981765 0 145.9375 C-1.19189941 145.92920166 -2.38379883 145.92090332 -3.61181641 145.91235352 C-12.27031034 145.74604888 -19.68177244 145.02084353 -27.6875 141.5 C-28.77546875 141.025625 -29.8634375 140.55125 -30.984375 140.0625 C-48.63417577 131.4447569 -60.34600154 116.45619568 -66.87890625 98.1640625 C-72.95592895 77.96378496 -71.61335827 55.45052716 -62 36.6875 C-58.41526308 30.12937664 -54.04899249 24.72235341 -48.6875 19.5 C-48.02492188 18.80519531 -47.36234375 18.11039062 -46.6796875 17.39453125 C-42.20613293 12.99752039 -37.36065327 10.012133 -31.8125 7.1875 C-31.17691162 6.86185059 -30.54132324 6.53620117 -29.88647461 6.20068359 C-20.18667745 1.50876813 -10.72091357 -0.06210407 0 0 Z " fill="#0B0D0D" transform="translate(758.6875,444.5)"/>
<path d="M0 0 C11.88 0 23.76 0 36 0 C36 11.88 36 23.76 36 36 C47.55 36 59.1 36 71 36 C71 45.57 71 55.14 71 65 C59.45 65 47.9 65 36 65 C36.09095192 76.5353413 36.09095192 76.5353413 36.20898438 88.0703125 C36.26317324 92.77959133 36.31428804 97.48875459 36.34643555 102.19824219 C36.37257372 105.99802961 36.41304884 109.79742575 36.46318626 113.5969696 C36.47978432 115.04167285 36.49134236 116.48644366 36.49761391 117.93122864 C36.5109755 128.81823203 36.5109755 128.81823203 40 139 C44.69719842 142.81647371 48.35716364 144.13062341 54.32421875 144.09765625 C55.71386841 144.09390991 55.71386841 144.09390991 57.1315918 144.09008789 C58.3050415 144.08098389 59.47849121 144.07187988 60.6875 144.0625 C64.420625 144.041875 68.15375 144.02125 72 144 C72 154.23 72 164.46 72 175 C53.99687534 178.27329539 34.33013732 180.22822462 18.125 170.1875 C8.28961587 162.96407686 2.95041046 154.91696563 0 143 C-0.17012514 140.30995699 -0.25446951 137.7303585 -0.22705078 135.04516602 C-0.22734283 134.28336533 -0.22763489 133.52156464 -0.22793579 132.73667908 C-0.22655294 130.24230176 -0.21104155 127.74823078 -0.1953125 125.25390625 C-0.19157865 123.51513329 -0.18873343 121.77635822 -0.18673706 120.0375824 C-0.17912992 115.47883209 -0.15950672 110.92021083 -0.1373291 106.36151123 C-0.11680756 101.70261378 -0.10772189 97.04369532 -0.09765625 92.38476562 C-0.07625788 83.25644483 -0.04109975 74.12825338 0 65 C-7.92 65 -15.84 65 -24 65 C-24 55.43 -24 45.86 -24 36 C-16.08 36 -8.16 36 0 36 C0 24.12 0 12.24 0 0 Z " fill="#0B0E0D" transform="translate(538,412)"/>
<path d="M0 0 C11.88 0 23.76 0 36 0 C36 45.54 36 91.08 36 138 C24.12 138 12.24 138 0 138 C0 92.46 0 46.92 0 0 Z " fill="#0B0E0E" transform="translate(633,449)"/>
<path d="M0 0 C8.84965782 6.10493312 13.7737635 14.74632845 16.41796875 25.04296875 C18.57022866 39.22738644 17.04048256 54.79590074 8.44921875 66.6484375 C2.89507299 73.507735 -3.51282656 77.16448044 -12.171875 78.74609375 C-24.11314049 79.81296677 -33.83197355 78.24818035 -43.2890625 70.62890625 C-52.49200053 61.42596822 -55.40979058 50.41644361 -55.546875 37.80859375 C-55.42358075 25.26502636 -52.90572385 14.29090074 -44.35546875 4.7109375 C-32.74126151 -6.34015666 -13.90493348 -8.02784828 0 0 Z " fill="#FBFAF9" transform="translate(924.171875,480.25390625)"/>
<path d="M0 0 C9.19159025 6.09310691 12.98166653 16.30614528 15.44921875 26.625 C16.84812022 40.61401469 15.00081738 55.30769744 6.234375 66.7421875 C0.23923017 73.31568748 -7.92125552 77.39201041 -16.77734375 77.98828125 C-27.17761615 78.272226 -35.12664953 77.32096173 -43.48828125 70.5625 C-53.08467935 61.4313818 -56.25052891 51.69458656 -56.64038086 38.68286133 C-56.74808627 29.75965336 -56.61518 21.75757214 -52.23828125 13.75 C-51.87605469 13.03070313 -51.51382812 12.31140625 -51.140625 11.5703125 C-46.91590917 3.98014508 -40.40064404 -1.67208274 -32.203125 -4.58984375 C-20.90596388 -7.10528542 -10.08642802 -5.63290919 0 0 Z " fill="#FBFAF9" transform="translate(326.23828125,481.25)"/>
<path d="M0 0 C45.49869452 0 45.49869452 0 55.58984375 9.49609375 C60.883678 15.10056864 63.06123812 21.2162501 63.4375 28.875 C63.111888 37.61225532 59.89428165 45.06994962 53.84765625 51.34765625 C46.25601344 58.13679982 37.09109533 59.33306551 27.24609375 59.1953125 C26.54746216 59.19329834 25.84883057 59.19128418 25.12902832 59.18920898 C22.56511698 59.17889031 20.00130058 59.1509701 17.4375 59.125 C8.8059375 59.063125 8.8059375 59.063125 0 59 C0 39.53 0 20.06 0 0 Z " fill="#FBFAF9" transform="translate(123,428)"/>
<path d="M0 0 C5.9452843 2.67423019 9.8016926 7.15782415 13.0234375 12.72265625 C14.64229367 19.52185217 14.03318884 25.16173139 10.6484375 31.34765625 C6.96718305 36.86953792 3.01463854 39.43993944 -3.3515625 41.34765625 C-10.02353781 42.19489121 -15.50305531 40.68267456 -21.3515625 37.34765625 C-26.21582188 33.21403665 -28.83975823 28.634017 -29.6015625 22.25390625 C-29.9190804 16.45920452 -28.76156226 12.06995913 -25.3515625 7.34765625 C-18.15009858 -0.18798233 -10.37683428 -2.87862346 0 0 Z " fill="#0B0E0E" transform="translate(659.3515625,389.65234375)"/>
<path d="M0 0 C76 0 76 0 80 2 C54.26 2 28.52 2 2 2 C2 64.37 2 126.74 2 191 C11.9 191 21.8 191 32 191 C32.99 191.33 33.98 191.66 35 192 C34.99333817 191.19011627 34.98667633 190.38023254 34.97981262 189.54580688 C34.91976882 181.9234852 34.87406011 174.30127774 34.84456348 166.67878151 C34.82888929 162.75971028 34.80761952 158.84083401 34.77368164 154.921875 C34.74114999 151.14175875 34.7231602 147.36183033 34.71536827 143.58158493 C34.70981355 142.13742489 34.69896679 140.69327544 34.68280983 139.2491951 C34.66112036 137.23084743 34.65977533 135.21231183 34.65942383 133.19384766 C34.65276199 132.04357086 34.64610016 130.89329407 34.63923645 129.7081604 C34.75828842 128.81446747 34.87734039 127.92077454 35 127 C38.67929445 124.54713704 40.47377907 124.76771122 44.85546875 124.8046875 C45.51710526 124.8075174 46.17874176 124.81034729 46.86042786 124.81326294 C48.96963737 124.82444082 51.07841925 124.84954019 53.1875 124.875 C54.61913448 124.88503293 56.05077564 124.89415824 57.48242188 124.90234375 C60.98841977 124.92437205 64.49416813 124.95888515 68 125 C67.67 125.66 67.34 126.32 67 127 C57.1 127 47.2 127 37 127 C37 148.78 37 170.56 37 193 C24.79 193 12.58 193 0 193 C0 129.31 0 65.62 0 0 Z " fill="#020203" transform="translate(86,394)"/>
<path d="M0 0 C11.88 0 23.76 0 36 0 C36 45.54 36 91.08 36 138 C24.12 138 12.24 138 0 138 C0 92.46 0 46.92 0 0 Z M1 1 C1.33 45.88 1.66 90.76 2 137 C12.56 136.67 23.12 136.34 34 136 C34 91.45 34 46.9 34 1 C23.11 1 12.22 1 1 1 Z " fill="#000101" transform="translate(633,449)"/>
<path d="M0 0 C11.88 0 23.76 0 36 0 C36 11.88 36 23.76 36 36 C47.55 36 59.1 36 71 36 C71 45.57 71 55.14 71 65 C59.45 65 47.9 65 36 65 C36.09095192 76.5353413 36.09095192 76.5353413 36.20898438 88.0703125 C36.26317324 92.77959133 36.31428804 97.48875459 36.34643555 102.19824219 C36.37257372 105.99802961 36.41304884 109.79742575 36.46318626 113.5969696 C36.47978432 115.04167285 36.49134236 116.48644366 36.49761391 117.93122864 C36.5408976 126.99145356 36.83147645 134.24721468 42 142 C40.1875 141.4375 40.1875 141.4375 38 140 C34.86135869 133.83896334 33.87553288 128.50914624 33.87060547 121.66503906 C33.86745331 120.40733704 33.86430115 119.14963501 33.86105347 117.8538208 C33.86284269 116.49108851 33.86489351 115.12835654 33.8671875 113.765625 C33.86651358 112.36269107 33.86554281 110.95975726 33.86428833 109.55682373 C33.86281747 106.62494794 33.86494754 103.6931027 33.86962891 100.76123047 C33.87534695 96.99599931 33.87203028 93.23083911 33.86605644 89.4656105 C33.86245227 86.57295186 33.86358838 83.6803102 33.86618423 80.78765106 C33.86685281 79.39851625 33.86602748 78.00937992 33.86370468 76.62024689 C33.86117829 74.68595914 33.86570851 72.75166601 33.87060547 70.81738281 C33.87140106 69.71549622 33.87219666 68.61360962 33.87301636 67.47833252 C34 65 34 65 35 64 C37.59359322 63.91148471 40.16039691 63.88474055 42.75390625 63.90234375 C43.52935287 63.9037587 44.3047995 63.90517365 45.10374451 63.90663147 C47.59003494 63.91224655 50.0762366 63.92480154 52.5625 63.9375 C54.24413933 63.94251306 55.92578006 63.9470763 57.60742188 63.95117188 C61.73834329 63.96137168 65.86907182 63.98094395 70 64 C70 55.42 70 46.84 70 38 C67.56882812 38.02320313 65.13765625 38.04640625 62.6328125 38.0703125 C60.28304568 38.08590161 57.93328457 38.09805055 55.58349609 38.10986328 C53.94805328 38.11993254 52.31262851 38.13358881 50.67724609 38.15087891 C48.3290563 38.17508705 45.98110412 38.18647357 43.6328125 38.1953125 C42.89942657 38.20563507 42.16604065 38.21595764 41.41043091 38.22659302 C39.60537303 38.22699368 37.8009217 38.12212755 36 38 C34 36 34 36 33.77294922 32.65185547 C33.77326625 31.22359367 33.78458639 29.79530788 33.8046875 28.3671875 C33.8075174 27.61535187 33.81034729 26.86351624 33.81326294 26.08889771 C33.82447126 23.68410422 33.84957648 21.27968119 33.875 18.875 C33.88502898 17.24609912 33.89415497 15.61719242 33.90234375 13.98828125 C33.92271252 9.99192945 33.96185851 5.9963801 34 2 C23.11 1.67 12.22 1.34 1 1 C1.01160156 3.58714844 1.02320313 6.17429687 1.03515625 8.83984375 C1.04294662 11.33520383 1.04902349 13.83056257 1.05493164 16.32592773 C1.05997204 18.06519168 1.0668043 19.80445136 1.07543945 21.54370117 C1.08751792 24.03825937 1.09323108 26.53276173 1.09765625 29.02734375 C1.10281754 29.80963852 1.10797882 30.59193329 1.11329651 31.39793396 C1.11349226 33.26567114 1.06199694 35.13329204 1 37 C0 38 0 38 -2.13305664 38.11352539 C-3.50772095 38.10567017 -3.50772095 38.10567017 -4.91015625 38.09765625 C-5.800979 38.09515869 -6.69180176 38.09266113 -7.60961914 38.09008789 C-8.74906982 38.08098389 -9.88852051 38.07187988 -11.0625 38.0625 C-14.671875 38.041875 -18.28125 38.02125 -22 38 C-22 46.58 -22 55.16 -22 64 C-14.41 64 -6.82 64 1 64 C1 88.42 1 112.84 1 138 C0.67 138 0.34 138 0 138 C0 113.91 0 89.82 0 65 C-7.92 65 -15.84 65 -24 65 C-24 55.43 -24 45.86 -24 36 C-16.08 36 -8.16 36 0 36 C0 24.12 0 12.24 0 0 Z " fill="#010101" transform="translate(538,412)"/>
<path d="M0 0 C0.66 0 1.32 0 2 0 C2 10.23 2 20.46 2 31 C-6.36804079 32.52146196 -13.19870056 33.33796411 -21.5 33.3125 C-22.55058594 33.32861328 -23.60117187 33.34472656 -24.68359375 33.36132812 C-31.8923095 33.36578345 -38.15441529 32.24588883 -45 30 C-45 29.01 -45 28.02 -45 27 C-43.51988629 27.30798326 -42.04092675 27.621518 -40.5625 27.9375 C-39.32693359 28.19853516 -39.32693359 28.19853516 -38.06640625 28.46484375 C-36 29 -36 29 -35 30 C-34.01 30 -33.02 30 -32 30 C-31.01 30 -30.02 30 -29 30 C-28.67 30.33 -28.34 30.66 -28 31 C-18.89490887 31.39038222 -9.85989346 31.29700942 -1 29 C-1.00523682 28.26362305 -1.01047363 27.52724609 -1.01586914 26.76855469 C-1.03666867 23.42904515 -1.04966968 20.08954926 -1.0625 16.75 C-1.07087891 15.59113281 -1.07925781 14.43226563 -1.08789062 13.23828125 C-1.09111328 12.12324219 -1.09433594 11.00820313 -1.09765625 9.859375 C-1.10289307 8.83295898 -1.10812988 7.80654297 -1.11352539 6.74902344 C-1.01336951 4.32374344 -0.69923078 2.31302639 0 0 Z " fill="#101111" transform="translate(608,556)"/>
<path d="M0 0 C11.55 0 23.1 0 35 0 C35 0.66 35 1.32 35 2 C35.88751953 1.96519531 35.88751953 1.96519531 36.79296875 1.9296875 C41.33801959 1.82588536 44.85940059 1.86291643 49 4 C48.34 4.99 47.68 5.98 47 7 C46.48695313 6.79503906 45.97390625 6.59007812 45.4453125 6.37890625 C36.81400657 3.34196527 28.05390453 3.28601659 19 3 C19 2.67 19 2.34 19 2 C12.73 1.67 6.46 1.34 0 1 C0 0.67 0 0.34 0 0 Z " fill="#1B1D1D" transform="translate(124,426)"/>
<path d="M0 0 C10.89 0 21.78 0 33 0 C33 0.66 33 1.32 33 2 C22.77 2 12.54 2 2 2 C2 3.98 2 5.96 2 8 C0 5 0 5 0 0 Z " fill="#040404" transform="translate(390,544)"/>
<path d="M0 0 C0.33 0 0.66 0 1 0 C2.09857724 6.1676029 2.11539104 12.18415123 2.0625 18.4375 C2.05798828 19.45521484 2.05347656 20.47292969 2.04882812 21.52148438 C2.03712437 24.01438509 2.02072848 26.50716074 2 29 C1.01 29.33 0.02 29.66 -1 30 C-1.02896822 25.56251365 -1.04678788 21.12505153 -1.0625 16.6875 C-1.07087891 15.42486328 -1.07925781 14.16222656 -1.08789062 12.86132812 C-1.09111328 11.65283203 -1.09433594 10.44433594 -1.09765625 9.19921875 C-1.10289307 8.08377686 -1.10812988 6.96833496 -1.11352539 5.8190918 C-1 3 -1 3 0 0 Z " fill="#121413" transform="translate(975,500)"/>
<path d="M0 0 C0.99 0 1.98 0 3 0 C2.67 0.66 2.34 1.32 2 2 C1.65846063 3.66500443 1.32550502 5.33178677 1 7 C0.67 7.99 0.34 8.98 0 10 C-0.52579754 12.34144219 -1.01329887 14.68920862 -1.5 17.0390625 C-2 19 -2 19 -3 20 C-3.07179964 21.51928038 -3.08392007 23.04167482 -3.0625 24.5625 C-3.05347656 25.38878906 -3.04445313 26.21507812 -3.03515625 27.06640625 C-3.02355469 27.70449219 -3.01195312 28.34257813 -3 29 C-5.07575971 27.33506773 -5.93998192 26.52140705 -6.25 23.828125 C-5.43459447 15.41925545 -2.88416224 7.88621482 0 0 Z " fill="#141515" transform="translate(839,485)"/>
<path d="M0 0 C0.66 0.33 1.32 0.66 2 1 C2 1.99 2 2.98 2 4 C1.34 4 0.68 4 0 4 C0.33 4.66 0.66 5.32 1 6 C1.125 9.0625 1.125 9.0625 1 12 C0.67 12.33 0.34 12.66 0 13 C-0.07271741 15.35313555 -0.08370868 17.70833668 -0.0625 20.0625 C-0.05347656 21.35285156 -0.04445313 22.64320313 -0.03515625 23.97265625 C-0.02355469 24.97167969 -0.01195312 25.97070312 0 27 C-0.33 27 -0.66 27 -1 27 C-1.22745015 23.62600624 -1.42851745 20.25092748 -1.625 16.875 C-1.68945312 15.92367187 -1.75390625 14.97234375 -1.8203125 13.9921875 C-2.10594477 8.85080672 -2.12666217 4.82151653 0 0 Z " fill="#141515" transform="translate(691,498)"/>
<path d="M0 0 C1.01964844 -0.00515625 2.03929687 -0.0103125 3.08984375 -0.015625 C6.11582204 0.25476465 8.32075647 0.97758864 11.0625 2.25 C8.03721299 3.18817889 5.97088426 3.20019161 2.875 2.625 C-2.25600307 1.97304086 -6.32138854 2.96040872 -10.9375 5.25 C-13.44430661 7.24786681 -13.44430661 7.24786681 -14.9375 9.25 C-15.5975 8.92 -16.2575 8.59 -16.9375 8.25 C-15.85880607 7.28644756 -14.77431257 6.32938583 -13.6875 5.375 C-12.78257812 4.57449219 -12.78257812 4.57449219 -11.859375 3.7578125 C-7.89256323 0.64563904 -5.05501012 -0.02549816 0 0 Z " fill="#060606" transform="translate(650.9375,388.75)"/>
<path d="M0 0 C0.33 0 0.66 0 1 0 C1.19412181 1.47831221 1.38012131 2.95769316 1.5625 4.4375 C1.66691406 5.26121094 1.77132813 6.08492188 1.87890625 6.93359375 C1.91886719 7.61550781 1.95882813 8.29742187 2 9 C1 10 1 10 -1.95922852 10.11352539 C-3.25272217 10.10828857 -4.54621582 10.10305176 -5.87890625 10.09765625 C-6.90889992 10.09553383 -6.90889992 10.09553383 -7.95970154 10.09336853 C-10.16067801 10.08775479 -12.36155409 10.07520007 -14.5625 10.0625 C-16.05143083 10.05748676 -17.54036324 10.05292355 -19.02929688 10.04882812 C-22.68623075 10.03778093 -26.34310558 10.02050713 -30 10 C-30 9.67 -30 9.34 -30 9 C-20.43 8.67 -10.86 8.34 -1 8 C-0.67 5.36 -0.34 2.72 0 0 Z " fill="#242425" transform="translate(503,479)"/>
<path d="M0 0 C0.763125 0.309375 1.52625 0.61875 2.3125 0.9375 C7.17314841 2.33802581 11.96858173 2.65979734 17 3 C17.33 3.99 17.66 4.98 18 6 C5.33029613 5.22095672 5.33029613 5.22095672 0 3 C0 2.01 0 1.02 0 0 Z " fill="#151616" transform="translate(280,584)"/>
<path d="M0 0 C-0.33 1.65 -0.66 3.3 -1 5 C-1.33 4.01 -1.66 3.02 -2 2 C-11.9 2 -21.8 2 -32 2 C-32.33 3.32 -32.66 4.64 -33 6 C-33 4.35 -33 2.7 -33 1 C-28.62175807 0.85717344 -24.24350273 0.71476747 -19.86523438 0.57275391 C-18.37532174 0.52436747 -16.88541286 0.47586542 -15.39550781 0.42724609 C-13.2558691 0.3574443 -11.11621732 0.28805616 -8.9765625 0.21875 C-7.04417725 0.1559082 -7.04417725 0.1559082 -5.07275391 0.09179688 C-3.38231328 0.04129587 -1.69119481 0 0 0 Z " fill="#161919" transform="translate(425,545)"/>
<path d="M0 0 C0 4.95 0 9.9 0 15 C-0.99 15.33 -1.98 15.66 -3 16 C-3 11.05 -3 6.1 -3 1 C-1 0 -1 0 0 0 Z " fill="#131515" transform="translate(395,481)"/>
<path d="M0 0 C5.61 0 11.22 0 17 0 C16.01 1.485 16.01 1.485 15 3 C11.7421875 3.29296875 11.7421875 3.29296875 7.875 3.1875 C5.95300781 3.14689453 5.95300781 3.14689453 3.9921875 3.10546875 C3.00476563 3.07066406 2.01734375 3.03585937 1 3 C0.67 2.01 0.34 1.02 0 0 Z " fill="#151817" transform="translate(152,518)"/>
<path d="M0 0 C10.15183804 -0.35482152 10.15183804 -0.35482152 15 2 C16.65919896 2.36871088 18.3247643 2.71281674 20 3 C20.33 4.32 20.66 5.64 21 7 C19.37276701 6.54965877 17.74826336 6.08944646 16.125 5.625 C15.22007812 5.36976563 14.31515625 5.11453125 13.3828125 4.8515625 C11 4 11 4 9 2 C6.79749008 1.53993654 6.79749008 1.53993654 4.375 1.375 C3.14910156 1.26285156 3.14910156 1.26285156 1.8984375 1.1484375 C1.27195312 1.09945313 0.64546875 1.05046875 0 1 C0 0.67 0 0.34 0 0 Z " fill="#171919" transform="translate(302,473)"/>
<path d="M0 0 C1.48011371 0.30798326 2.95907325 0.621518 4.4375 0.9375 C5.26121094 1.11152344 6.08492187 1.28554688 6.93359375 1.46484375 C9 2 9 2 10 3 C11.99958364 3.04080783 14.00045254 3.04254356 16 3 C14.8125 4.54296875 14.8125 4.54296875 13 6 C10.625 5.92578125 10.625 5.92578125 8 5.3125 C7.13375 5.12300781 6.2675 4.93351563 5.375 4.73828125 C3 4 3 4 0 2 C0 1.34 0 0.68 0 0 Z " fill="#181919" transform="translate(563,583)"/>
<path d="M0 0 C0.99 0 1.98 0 3 0 C3.02698189 1.62490954 3.04638757 3.24994633 3.0625 4.875 C3.07410156 5.77992188 3.08570313 6.68484375 3.09765625 7.6171875 C3 10 3 10 2 12 C1.34 12 0.68 12 0 12 C0 8.04 0 4.08 0 0 Z " fill="#222323" transform="translate(504,540)"/>
<path d="M0 0 C-0.66 0 -1.32 0 -2 0 C-2 0.66 -2 1.32 -2 2 C-5.21451269 3.60725635 -8.43612536 3.05748185 -12 3 C-12.33 2.01 -12.66 1.02 -13 0 C-11.39679026 -0.19551338 -9.79237014 -0.38111983 -8.1875 -0.5625 C-7.29417969 -0.66691406 -6.40085937 -0.77132813 -5.48046875 -0.87890625 C-3 -1 -3 -1 0 0 Z " fill="#1B1C1C" transform="translate(660,428)"/>
<path d="M0 0 C5.81266619 0.78549543 11.36877624 2.40682459 17 4 C12.78915963 6.80722691 10.88445782 5.94537893 6 5 C5.67 4.34 5.34 3.68 5 3 C3.35636866 2.27840576 1.68949614 1.60648579 0 1 C0 0.67 0 0.34 0 0 Z " fill="#131515" transform="translate(422,522)"/>
<path d="M0 0 C3 3 3 3 3.29296875 6.13671875 C3.25816406 7.30847656 3.22335937 8.48023438 3.1875 9.6875 C3.16042969 10.86699219 3.13335937 12.04648437 3.10546875 13.26171875 C3.07066406 14.16535156 3.03585937 15.06898438 3 16 C2.01 15.67 1.02 15.34 0 15 C0 10.05 0 5.1 0 0 Z " fill="#161818" transform="translate(267,511)"/>
<path d="M0 0 C4.02376035 0.37960003 6.68230868 1.57000816 10.3125 3.3125 C9.9825 3.9725 9.6525 4.6325 9.3125 5.3125 C4.6925 4.3225 0.0725 3.3325 -4.6875 2.3125 C-2.6875 0.3125 -2.6875 0.3125 0 0 Z " fill="#161616" transform="translate(445.6875,527.6875)"/>
<path d="M0 0 C2.42130331 2.42130331 2.52840504 3.80111377 3.125 7.125 C3.29257813 8.03507812 3.46015625 8.94515625 3.6328125 9.8828125 C3.81457031 10.93082031 3.81457031 10.93082031 4 12 C3.01 12 2.02 12 1 12 C0.63896464 10.18885568 0.28634496 8.37603177 -0.0625 6.5625 C-0.25972656 5.55316406 -0.45695313 4.54382813 -0.66015625 3.50390625 C-0.77230469 2.67761719 -0.88445312 1.85132813 -1 1 C-0.67 0.67 -0.34 0.34 0 0 Z " fill="#151716" transform="translate(220,435)"/>
<path d="M0 0 C-0.99 0.33 -1.98 0.66 -3 1 C-3 1.66 -3 2.32 -3 3 C-4.65 3 -6.3 3 -8 3 C-7.34 2.67 -6.68 2.34 -6 2 C-6 1.34 -6 0.68 -6 0 C-2.25 -1.125 -2.25 -1.125 0 0 Z M-19 3 C-15.37 3 -11.74 3 -8 3 C-8 3.33 -8 3.66 -8 4 C-11.63 4 -15.26 4 -19 4 C-19 3.67 -19 3.34 -19 3 Z " fill="#131515" transform="translate(319,558)"/>
<path d="M0 0 C0.66 0.66 1.32 1.32 2 2 C1.9765625 4.1640625 1.9765625 4.1640625 1.625 6.625 C1.51414062 7.44226563 1.40328125 8.25953125 1.2890625 9.1015625 C1.19367187 9.72804688 1.09828125 10.35453125 1 11 C0.01 11 -0.98 11 -2 11 C-1.34 7.37 -0.68 3.74 0 0 Z " fill="#161717" transform="translate(941,522)"/>
<path d="M0 0 C2.64465038 3.1254959 3.84414715 6.08788267 5 10 C4.01 10 3.02 10 2 10 C-1.07692308 4.58461538 -1.07692308 4.58461538 -0.6875 1.625 C-0.460625 1.08875 -0.23375 0.5525 0 0 Z " fill="#131414" transform="translate(240,545)"/>
<path d="M0 0 C4.95 0.99 4.95 0.99 10 2 C10 2.99 10 3.98 10 5 C6.7 4.34 3.4 3.68 0 3 C0 2.01 0 1.02 0 0 Z " fill="#131413" transform="translate(796,539)"/>
<path d="M0 0 C1.18082522 3.69007882 1.28527337 7.14880946 1 11 C0.01 11.66 -0.98 12.32 -2 13 C-2.19294408 8.17639811 -1.75747614 4.50353262 0 0 Z " fill="#161818" transform="translate(869,498)"/>
<path d="M0 0 C-0.99 1.485 -0.99 1.485 -2 3 C-5.625 3.6875 -5.625 3.6875 -9 4 C-9 3.01 -9 2.02 -9 1 C-2.25 -1.125 -2.25 -1.125 0 0 Z " fill="#131413" transform="translate(921,557)"/>
<path d="M0 0 C6.75 1.625 6.75 1.625 9 5 C4.545 4.01 4.545 4.01 0 3 C0 2.01 0 1.02 0 0 Z " fill="#141515" transform="translate(731,583)"/>
<path d="M0 0 C4.31687378 0.35001679 6.19275066 1.77686187 9 5 C4.78087253 4.5205537 2.20336822 3.83374881 -1 1 C-0.67 0.67 -0.34 0.34 0 0 Z " fill="#121313" transform="translate(484,512)"/>
<path d="M0 0 C0 3.41987028 -0.47254343 5.94508687 -2 9 C-2.99 8.67 -3.98 8.34 -5 8 C-2.25 1.125 -2.25 1.125 0 0 Z " fill="#141515" transform="translate(186,465)"/>
<path d="M0 0 C0.33 0.66 0.66 1.32 1 2 C-2.33333333 2 -5.66666667 2 -9 2 C-9 1.34 -9 0.68 -9 0 C-5.67032582 -0.83241855 -3.24733335 -1.2757381 0 0 Z " fill="#1D1D1D" transform="translate(750,446)"/>
<path d="M0 0 C0 0.99 0 1.98 0 3 C-2.875 3.625 -2.875 3.625 -6 4 C-6.66 3.34 -7.32 2.68 -8 2 C-2.25 0 -2.25 0 0 0 Z " fill="#131514" transform="translate(185,514)"/>
<path d="M0 0 C-0.99 0.495 -0.99 0.495 -2 1 C-2 1.66 -2 2.32 -2 3 C-4.875 3.125 -4.875 3.125 -8 3 C-8.66 2.34 -9.32 1.68 -10 1 C-6.59437148 0.22157062 -3.49234244 -0.09978121 0 0 Z " fill="#181918" transform="translate(169,485)"/>
<path d="M0 0 C2.31 0.33 4.62 0.66 7 1 C6.67 1.99 6.34 2.98 6 4 C3.69 3.34 1.38 2.68 -1 2 C-0.67 1.34 -0.34 0.68 0 0 Z " fill="#171918" transform="translate(878,584)"/>
<path d="M0 0 C0.33 0 0.66 0 1 0 C1.33 2.97 1.66 5.94 2 9 C0.35 9.33 -1.3 9.66 -3 10 C-2.34 9.34 -1.68 8.68 -1 8 C-0.54188325 6.02764667 -0.54188325 6.02764667 -0.375 3.875 C-0.25125 2.59625 -0.1275 1.3175 0 0 Z " fill="#2C2C2C" transform="translate(503,479)"/>
<path d="M0 0 C0.66 0 1.32 0 2 0 C3.32 2.64 4.64 5.28 6 8 C4.68 7.67 3.36 7.34 2 7 C2 5.68 2 4.36 2 3 C1.34 3 0.68 3 0 3 C0 2.01 0 1.02 0 0 Z " fill="#181818" transform="translate(213,423)"/>
<path d="M0 0 C1.98 0 3.96 0 6 0 C5.67 0.99 5.34 1.98 5 3 C3.02 3 1.04 3 -1 3 C-0.67 2.01 -0.34 1.02 0 0 Z " fill="#161616" transform="translate(767,587)"/>
<path d="M0 0 C0.66 0 1.32 0 2 0 C2 0.66 2 1.32 2 2 C3.65 2 5.3 2 7 2 C6.01 3.485 6.01 3.485 5 5 C2.69 4.01 0.38 3.02 -2 2 C-1.34 1.34 -0.68 0.68 0 0 Z " fill="#131313" transform="translate(419,582)"/>
<path d="M0 0 C0.598125 0.20625 1.19625 0.4125 1.8125 0.625 C0.1625 1.945 -1.4875 3.265 -3.1875 4.625 C-3.8475 3.635 -4.5075 2.645 -5.1875 1.625 C-2.1875 -0.375 -2.1875 -0.375 0 0 Z " fill="#151717" transform="translate(341.1875,579.375)"/>
<path d="M0 0 C2.31 1.98 4.62 3.96 7 6 C6.34 6.66 5.68 7.32 5 8 C2.5 5.6875 2.5 5.6875 0 3 C0 2.01 0 1.02 0 0 Z " fill="#121212" transform="translate(427,552)"/>
<path d="M0 0 C0.99 0.33 1.98 0.66 3 1 C3 2.98 3 4.96 3 7 C2.01 7 1.02 7 0 7 C0 4.69 0 2.38 0 0 Z " fill="#1A1B1C" transform="translate(234,525)"/>
<path d="M0 0 C-2.96687001 1.64826111 -5.65626525 2.44271087 -9 3 C-9 2.01 -9 1.02 -9 0 C-5.52176885 -1.15941038 -3.54104422 -0.70820884 0 0 Z " fill="#161616" transform="translate(801,495)"/>
<path d="M0 0 C0.66 0.66 1.32 1.32 2 2 C1.8125 4 1.8125 4 1 6 C0.01 6.66 -0.98 7.32 -2 8 C-1.34 5.36 -0.68 2.72 0 0 Z " fill="#1A1B1A" transform="translate(693,489)"/>
<path d="M0 0 C-2.8125 1.5625 -2.8125 1.5625 -6 3 C-6.99 2.67 -7.98 2.34 -9 2 C-8 0 -8 0 -6.1875 -0.6875 C-3.81180233 -1.02688538 -2.26664171 -0.72856341 0 0 Z " fill="#1C1D1C" transform="translate(439,446)"/>
<path d="M0 0 C0.66 0 1.32 0 2 0 C3.0625 1.8125 3.0625 1.8125 4 4 C3.67 4.99 3.34 5.98 3 7 C1.5 5.75 1.5 5.75 0 4 C0 2.68 0 1.36 0 0 Z " fill="#151616" transform="translate(668,398)"/>
<path d="M0 0 C0.94875 0.350625 1.8975 0.70125 2.875 1.0625 C2.875 1.7225 2.875 2.3825 2.875 3.0625 C-2.875 2.3125 -2.875 2.3125 -5.125 0.0625 C-3.125 -0.9375 -3.125 -0.9375 0 0 Z " fill="#18191A" transform="translate(190.125,401.9375)"/>
</svg>
